<svg xmlns="http://www.w3.org/2000/svg" viewBox="0 0 100 100">
  <!-- Cloud -->
  <path d="M30 50 Q20 50 20 60 Q20 70 30 70 L70 70 Q80 70 80 60 Q80 50 70 50 Q70 40 60 40 Q50 40 50 50 Z" fill="#3b82f6" opacity="0.8"/>
  <!-- Sun rays -->
  <circle cx="75" cy="25" r="12" fill="#fbbf24"/>
  <line x1="75" y1="10" x2="75" y2="5" stroke="#fbbf24" stroke-width="2" stroke-linecap="round"/>
  <line x1="75" y1="40" x2="75" y2="45" stroke="#fbbf24" stroke-width="2" stroke-linecap="round"/>
  <line x1="90" y1="25" x2="95" y2="25" stroke="#fbbf24" stroke-width="2" stroke-linecap="round"/>
  <line x1="60" y1="25" x2="55" y2="25" stroke="#fbbf24" stroke-width="2" stroke-linecap="round"/>
  <line x1="85" y1="15" x2="88" y2="12" stroke="#fbbf24" stroke-width="2" stroke-linecap="round"/>
  <line x1="65" y1="35" x2="62" y2="38" stroke="#fbbf24" stroke-width="2" stroke-linecap="round"/>
  <line x1="85" y1="35" x2="88" y2="38" stroke="#fbbf24" stroke-width="2" stroke-linecap="round"/>
  <line x1="65" y1="15" x2="62" y2="12" stroke="#fbbf24" stroke-width="2" stroke-linecap="round"/>
</svg>
